<svg width="194" height="59" viewBox="0 0 194 59" fill="none" xmlns="http://www.w3.org/2000/svg">
<path d="M81.1913 28.8597L78.5518 32.5412L76.6763 35.1576L75.4028 36.9405L74.1293 35.1576L72.2538 32.5412L69.6143 28.8597L67.5767 26.0117V41.4787H70.17V34.1157L70.9109 35.1576L73.5968 38.8854L75.426 41.4092L77.232 38.8854L79.8947 35.1576L80.6356 34.1388V41.4787H83.2289V26.0117L81.1913 28.8597Z" fill="white"/>
<path d="M87.2809 26.2427V28.8591H96.913V26.2427H87.2809ZM87.2809 32.5406V35.157H95.1765V32.5406H87.2809ZM87.2809 38.8848V41.4781H96.913V38.8848H87.2809Z" fill="white"/>
<path d="M100.155 26.2427V28.8591H104.716V41.4781H107.309V28.8591H111.894V26.2427H100.155Z" fill="white"/>
<path d="M119.048 26.2427L116.131 32.5406L114.927 35.157L111.986 41.4781H114.857L118.979 32.5638L122.915 41.4781H125.763L119.048 26.2427Z" fill="white"/>
<path d="M146.254 34.7634C146.139 34.5782 146.023 34.4161 145.907 34.2308C145.513 33.7446 145.05 33.3278 144.472 32.9805C144.541 32.9111 144.61 32.8184 144.657 32.7258C144.773 32.5406 144.888 32.3554 144.981 32.147C145.212 31.6376 145.328 31.105 145.328 30.5493C145.328 29.9705 145.212 29.4379 144.981 28.9054C144.981 28.8822 144.958 28.8822 144.958 28.8591C144.726 28.3497 144.402 27.9098 143.985 27.5162C143.036 26.6595 141.855 26.2427 140.42 26.2427H135.673V28.8591H140.42C141.23 28.8591 141.832 29.0443 142.226 29.4379C142.573 29.7389 142.735 30.1094 142.735 30.5493C142.735 30.8272 142.642 31.0819 142.48 31.3134C142.318 31.545 142.064 31.7534 141.739 31.9386C141.554 32.0081 141.369 32.0775 141.161 32.1007C140.975 32.1238 140.697 32.147 140.35 32.147H135.673V34.7634H140.79C141.693 34.7634 142.411 34.8792 142.99 35.1339C143.337 35.2728 143.615 35.5043 143.87 35.8053C144.124 36.1063 144.24 36.4536 144.24 36.8241C144.24 37.3103 144.008 37.7734 143.569 38.167C143.036 38.6533 142.341 38.8848 141.485 38.8848H135.673V41.4781H141.485C142.226 41.4781 142.92 41.3623 143.592 41.1308C144.263 40.8992 144.842 40.5519 145.328 40.0888C145.722 39.7415 146.046 39.3248 146.278 38.8848C146.324 38.7922 146.393 38.6764 146.44 38.5838C146.694 38.005 146.833 37.4261 146.833 36.8241C146.787 36.0832 146.625 35.3886 146.254 34.7634Z" fill="white"/>
<path d="M163.527 29.9712C162.833 28.7904 161.907 27.8411 160.726 27.1464C159.545 26.4518 158.248 26.1045 156.859 26.1045C155.47 26.1045 154.196 26.4518 152.992 27.1464C151.811 27.8411 150.885 28.7904 150.191 29.9712C149.797 30.6659 149.496 31.3836 149.334 32.1477C149.218 32.7034 149.149 33.2591 149.149 33.8611C149.149 34.1621 149.172 34.4631 149.195 34.7641C149.311 35.8292 149.635 36.8249 150.191 37.751C150.885 38.9319 151.811 39.8812 152.992 40.5758C154.173 41.2704 155.47 41.6178 156.859 41.6178C158.248 41.6178 159.522 41.2704 160.726 40.5758C161.907 39.8812 162.833 38.9319 163.527 37.751C164.222 36.5702 164.569 35.2735 164.569 33.8611C164.569 32.4487 164.222 31.1521 163.527 29.9712ZM161.281 36.4544C160.818 37.2416 160.216 37.8668 159.429 38.3299C158.642 38.793 157.808 39.0245 156.882 39.0245C155.956 39.0245 155.099 38.793 154.335 38.3299C153.571 37.8668 152.946 37.2416 152.483 36.4544C152.02 35.6671 151.788 34.7873 151.788 33.8611C151.788 32.935 152.02 32.0783 152.483 31.291C152.946 30.5038 153.548 29.8555 154.335 29.3924C155.122 28.9293 155.956 28.6978 156.882 28.6978C157.808 28.6978 158.665 28.9293 159.429 29.3924C160.216 29.8555 160.818 30.4806 161.281 31.2679C161.744 32.0551 161.976 32.9118 161.976 33.8611C161.976 34.8104 161.744 35.6671 161.281 36.4544Z" fill="white"/>
<path d="M177.675 26.2427L173.09 33.6288L168.552 26.2427H165.449L171.793 36.3842V41.4781H174.387V36.3842L180.8 26.2427H177.675Z" fill="white"/>
<path d="M193.373 34.9724C192.933 34.301 192.331 33.7684 191.544 33.3285C190.872 32.9812 189.854 32.7265 188.488 32.5644C188.048 32.495 187.654 32.4486 187.307 32.3792C186.959 32.3097 186.682 32.2403 186.427 32.1245C186.033 31.9624 185.732 31.754 185.524 31.4762C185.315 31.1983 185.2 30.8973 185.2 30.5963C185.2 30.1564 185.454 29.7628 185.964 29.3691C186.265 29.1608 186.635 28.9755 187.052 28.8598C187.469 28.744 187.886 28.6745 188.302 28.6745C188.742 28.6745 189.159 28.744 189.576 28.8598C189.993 28.9755 190.34 29.1608 190.664 29.3691C191.15 29.7396 191.405 30.1332 191.428 30.5732L193.767 29.2302C193.466 28.4661 192.956 27.7947 192.215 27.2621C191.683 26.8685 191.081 26.5675 190.409 26.3823C189.738 26.1739 189.043 26.0581 188.302 26.0581C187.585 26.0581 186.89 26.1739 186.218 26.3823C185.547 26.5907 184.945 26.8917 184.412 27.2621C183.834 27.702 183.394 28.1883 183.069 28.7671C182.745 29.346 182.606 29.948 182.606 30.5963C182.606 31.4067 182.838 32.1476 183.301 32.8423C183.764 33.5369 184.412 34.0694 185.246 34.4631C185.894 34.7641 186.844 34.9956 188.117 35.1345C189.252 35.2734 189.969 35.4355 190.294 35.6208C190.641 35.806 190.896 36.0375 191.104 36.2922C191.312 36.5469 191.405 36.8248 191.405 37.1026C191.405 37.5426 191.15 37.9362 190.641 38.3298C190.34 38.5382 189.969 38.7234 189.553 38.8392C189.136 38.955 188.719 39.0244 188.279 39.0244C187.839 39.0244 187.422 38.955 187.029 38.8392C186.612 38.7234 186.265 38.5382 185.941 38.3298C185.755 38.214 185.593 38.0519 185.431 37.8436C185.269 37.6352 185.2 37.4268 185.177 37.1721L182.861 38.4919C183.139 39.256 183.648 39.9043 184.389 40.4368C184.922 40.8304 185.524 41.1314 186.195 41.3167C186.867 41.5251 187.561 41.6408 188.279 41.6408C188.997 41.6408 189.715 41.5251 190.386 41.3167C191.058 41.1083 191.66 40.8073 192.192 40.4368C192.771 39.9969 193.234 39.5107 193.535 38.9318C193.836 38.3529 193.998 37.7509 193.998 37.1026C194.021 36.3385 193.813 35.6439 193.373 34.9724Z" fill="white"/>
<path d="M42.9284 13.7869C42.9284 13.7869 35.6117 20.5942 35.4033 25.9197C35.4033 25.9197 34.1067 31.3378 42.2106 40.8078C42.2106 40.8078 43.2988 42.7527 47.8602 48.3329C47.8602 48.3329 51.1249 43.8873 49.2726 28.9066C49.2263 28.9066 46.8183 13.6248 42.9284 13.7869Z" fill="url(#paint0_linear_37_10)"/>
<path d="M47.7445 49.8375C47.7445 49.8375 34.8939 34.139 34.5929 29.022C34.5698 28.6284 34.5466 28.2116 34.4772 27.818C34.2456 26.1972 34.6392 20.9643 45.4291 10.2671C45.4291 10.2671 30.24 -5.01459 9.10024 3.04305C7.61837 3.6219 6.32174 4.57122 5.34927 5.79839L17.8062 15.5C20.8857 18.2553 20.4689 23.9975 20.4689 23.9975L34.5466 44.3269L19.4964 24.3448C19.0102 16.403 17.5515 17.1439 17.5515 17.1439L4.19156 7.78964C4.16841 7.83595 4.16841 7.8591 4.14525 7.90541C2.82547 11.1701 1.0426 16.3798 0.64898 21.1496C0.417439 23.9744 1.3436 26.776 3.19593 28.9062C3.28855 28.9988 3.35801 29.0914 3.45063 29.1841C3.54325 29.3461 5.48819 32.2636 10.9526 34.9031C12.2955 35.5514 13.8468 36.1766 15.6529 36.7555C18.8481 38.3068 23.4558 40.9927 28.3413 45.3456C28.3413 45.3456 36.2369 53.1717 35.8664 56.4596C35.8664 56.4596 39.4553 59.516 43.4841 58.2193C43.5073 58.2193 48.6012 54.9314 47.7445 49.8375Z" fill="url(#paint1_linear_37_10)"/>
<defs>
<linearGradient id="paint0_linear_37_10" x1="35.3198" y1="31.062" x2="49.8111" y2="31.062" gradientUnits="userSpaceOnUse">
<stop stop-color="#2098BA"/>
<stop offset="0.2" stop-color="#293370"/>
<stop offset="0.4" stop-color="#E4207D"/>
<stop offset="0.6" stop-color="#E12E2C"/>
<stop offset="0.8" stop-color="#E9E630"/>
<stop offset="1" stop-color="#198544"/>
</linearGradient>
<linearGradient id="paint1_linear_37_10" x1="0.625826" y1="29.6096" x2="47.8357" y2="29.6096" gradientUnits="userSpaceOnUse">
<stop stop-color="white"/>
<stop offset="1" stop-color="white"/>
</linearGradient>
</defs>
</svg>
